#Comment line ignore any data following # character 
#Hierarchical Translation and Rotation (.htr) file 
[Header]	
#Header keywords are followed by a single value 
FileType HTR		#Single word string
DataType HTRS		#Translation followed by rotation and scale data
FileVersion 1		#integer
NumSegments 84		#integer
NumFrames 2		#integer
DataFrameRate 30		#integer, data frame rate in this file
EulerRotationOrder ZYX
CalibrationUnits mm
RotationUnits Degrees
GlobalAxisofGravity Y
BoneLengthAxis Y
ScaleFactor 1.00
[SegmentNames&Hierarchy]
#CHILD	PARENT
MASTER GLOBAL
root MASTER
chest root
L_mid_tent01 root
R_mid_tent01 root
spine01 root
Bip01_Neck chest
L_humerus chest
R_humerus chest
weapon_bone chest
Bip01_Head Bip01_Neck
eye_left_bone Bip01_Head
eye_right_bone Bip01_Head
L_forearm L_humerus
L_front_hand L_forearm
L_weapon_bone L_forearm
L_front_hand01_01 L_front_hand
L_front_hand02_01 L_front_hand
L_front_hand03_01 L_front_hand
L_front_hand01_02 L_front_hand01_01
L_front_hand02_02 L_front_hand02_01
L_front_hand03_02 L_front_hand03_01
R_forearm R_humerus
R_front_hand R_forearm
R_weapon_bone R_forearm
R_front_hand01_01 R_front_hand
R_front_hand02_01 R_front_hand
R_front_hand03_01 R_front_hand
R_front_hand01_02 R_front_hand01_01
R_front_hand02_02 R_front_hand02_01
R_front_hand03_02 R_front_hand03_01
null_rope01_connect L_mid_tent01
Rope1_Seg01 null_rope01_connect
Rope1_Seg02 Rope1_Seg01
Rope1_Seg03 Rope1_Seg02
Rope1_Seg04 Rope1_Seg03
Rope1_Seg05 Rope1_Seg04
Rope1_Seg06 Rope1_Seg05
Rope1_Seg07 Rope1_Seg06
Rope1_Seg09 Rope1_Seg07
L_mid_hand01 Rope1_Seg09
L_mid_hand02 Rope1_Seg09
L_mid_hand03 Rope1_Seg09
null_rope02_connect R_mid_tent01
Rope2_Seg01 null_rope02_connect
Rope2_Seg02 Rope2_Seg01
Rope2_Seg03 Rope2_Seg02
Rope2_Seg04 Rope2_Seg03
Rope2_Seg05 Rope2_Seg04
Rope2_Seg06 Rope2_Seg05
Rope2_Seg07 Rope2_Seg06
Rope2_Seg09 Rope2_Seg07
R_mid_hand01 Rope2_Seg09
R_mid_hand02 Rope2_Seg09
R_mid_hand03 Rope2_Seg09
spine02 spine01
spine03 spine02
pelvis spine03
null_rope03_connect pelvis
null_rope04_connect pelvis
Rope3_Seg01 null_rope03_connect
Rope3_Seg02 Rope3_Seg01
Rope3_Seg03 Rope3_Seg02
Rope3_Seg04 Rope3_Seg03
Rope3_Seg05 Rope3_Seg04
Rope3_Seg06 Rope3_Seg05
Rope3_Seg07 Rope3_Seg06
Rope3_Seg08 Rope3_Seg07
Rope3_Seg09 Rope3_Seg08
R_rear_hand01 Rope3_Seg09
R_rear_hand02 Rope3_Seg09
R_rear_hand03 Rope3_Seg09
Rope4_Seg01 null_rope04_connect
Rope4_Seg02 Rope4_Seg01
Rope4_Seg03 Rope4_Seg02
Rope4_Seg04 Rope4_Seg03
Rope4_Seg05 Rope4_Seg04
Rope4_Seg06 Rope4_Seg05
Rope4_Seg07 Rope4_Seg06
Rope4_Seg08 Rope4_Seg07
Rope4_Seg09 Rope4_Seg08
L_rear_hand01 Rope4_Seg09
L_rear_hand02 Rope4_Seg09
L_rear_hand03 Rope4_Seg09
[BasePosition]
#SegmentName Tx, Ty, Tz, Rx, Ry, Rz, BoneLength
MASTER 0.000000 0.000000 0.000000 -90.000000 0.000000 0.000000 10.000000 
root 0.000000 0.000000 0.000000 0.000000 0.000000 0.000000 10.000000 
chest 0.000000 0.000000 0.000000 0.000000 0.000000 0.000000 10.000000 
L_mid_tent01 0.000000 0.000000 0.000000 0.000000 0.000000 0.000000 10.000000 
R_mid_tent01 0.000000 0.000000 0.000000 0.000000 0.000000 0.000000 10.000000 
spine01 0.000000 0.000000 0.000000 0.000000 0.000000 0.000000 10.000000 
Bip01_Neck 0.000000 0.000000 0.000000 0.000000 0.000000 0.000000 10.000000 
L_humerus 0.000000 0.000000 0.000000 0.000000 0.000000 0.000000 10.000000 
R_humerus 0.000000 0.000000 0.000000 0.000000 0.000000 0.000000 10.000000 
weapon_bone 0.000000 0.000000 0.000000 0.000000 0.000000 0.000000 10.000000 
Bip01_Head 0.000000 0.000000 0.000000 0.000000 0.000000 0.000000 10.000000 
eye_left_bone 0.000000 0.000000 0.000000 0.000000 0.000000 0.000000 10.000000 
eye_right_bone 0.000000 0.000000 0.000000 0.000000 0.000000 0.000000 10.000000 
L_forearm 0.000000 0.000000 0.000000 0.000000 0.000000 0.000000 10.000000 
L_front_hand 0.000000 0.000000 0.000000 0.000000 0.000000 0.000000 10.000000 
L_weapon_bone 0.000000 0.000000 0.000000 0.000000 0.000000 0.000000 10.000000 
L_front_hand01_01 0.000000 0.000000 0.000000 0.000000 0.000000 0.000000 10.000000 
L_front_hand02_01 0.000000 0.000000 0.000000 0.000000 0.000000 0.000000 10.000000 
L_front_hand03_01 0.000000 0.000000 0.000000 0.000000 0.000000 0.000000 10.000000 
L_front_hand01_02 0.000000 0.000000 0.000000 0.000000 0.000000 0.000000 10.000000 
L_front_hand02_02 0.000000 0.000000 0.000000 0.000000 0.000000 0.000000 10.000000 
L_front_hand03_02 0.000000 0.000000 0.000000 0.000000 0.000000 0.000000 10.000000 
R_forearm 0.000000 0.000000 0.000000 0.000000 0.000000 0.000000 10.000000 
R_front_hand 0.000000 0.000000 0.000000 0.000000 0.000000 0.000000 10.000000 
R_weapon_bone 0.000000 0.000000 0.000000 0.000000 0.000000 0.000000 10.000000 
R_front_hand01_01 0.000000 0.000000 0.000000 0.000000 0.000000 0.000000 10.000000 
R_front_hand02_01 0.000000 0.000000 0.000000 0.000000 0.000000 0.000000 10.000000 
R_front_hand03_01 0.000000 0.000000 0.000000 0.000000 0.000000 0.000000 10.000000 
R_front_hand01_02 0.000000 0.000000 0.000000 0.000000 0.000000 0.000000 10.000000 
R_front_hand02_02 0.000000 0.000000 0.000000 0.000000 0.000000 0.000000 10.000000 
R_front_hand03_02 0.000000 0.000000 0.000000 0.000000 0.000000 0.000000 10.000000 
null_rope01_connect 0.000000 0.000000 0.000000 0.000000 0.000000 0.000000 10.000000 
Rope1_Seg01 0.000000 0.000000 0.000000 0.000000 0.000000 0.000000 10.000000 
Rope1_Seg02 0.000000 0.000000 0.000000 0.000000 0.000000 0.000000 10.000000 
Rope1_Seg03 0.000000 0.000000 0.000000 0.000000 0.000000 0.000000 10.000000 
Rope1_Seg04 0.000000 0.000000 0.000000 0.000000 0.000000 0.000000 10.000000 
Rope1_Seg05 0.000000 0.000000 0.000000 0.000000 0.000000 0.000000 10.000000 
Rope1_Seg06 0.000000 0.000000 0.000000 0.000000 0.000000 0.000000 10.000000 
Rope1_Seg07 0.000000 0.000000 0.000000 0.000000 0.000000 0.000000 10.000000 
Rope1_Seg09 0.000000 0.000000 0.000000 0.000000 0.000000 0.000000 10.000000 
L_mid_hand01 0.000000 0.000000 0.000000 0.000000 0.000000 0.000000 10.000000 
L_mid_hand02 0.000000 0.000000 0.000000 0.000000 0.000000 0.000000 10.000000 
L_mid_hand03 0.000000 0.000000 0.000000 0.000000 0.000000 0.000000 10.000000 
null_rope02_connect 0.000000 0.000000 0.000000 0.000000 0.000000 0.000000 10.000000 
Rope2_Seg01 0.000000 0.000000 0.000000 0.000000 0.000000 0.000000 10.000000 
Rope2_Seg02 0.000000 0.000000 0.000000 0.000000 0.000000 0.000000 10.000000 
Rope2_Seg03 0.000000 0.000000 0.000000 0.000000 0.000000 0.000000 10.000000 
Rope2_Seg04 0.000000 0.000000 0.000000 0.000000 0.000000 0.000000 10.000000 
Rope2_Seg05 0.000000 0.000000 0.000000 0.000000 0.000000 0.000000 10.000000 
Rope2_Seg06 0.000000 0.000000 0.000000 0.000000 0.000000 0.000000 10.000000 
Rope2_Seg07 0.000000 0.000000 0.000000 0.000000 0.000000 0.000000 10.000000 
Rope2_Seg09 0.000000 0.000000 0.000000 0.000000 0.000000 0.000000 10.000000 
R_mid_hand01 0.000000 0.000000 0.000000 0.000000 0.000000 0.000000 10.000000 
R_mid_hand02 0.000000 0.000000 0.000000 0.000000 0.000000 0.000000 10.000000 
R_mid_hand03 0.000000 0.000000 0.000000 0.000000 0.000000 0.000000 10.000000 
spine02 0.000000 0.000000 0.000000 0.000000 0.000000 0.000000 10.000000 
spine03 0.000000 0.000000 0.000000 0.000000 0.000000 0.000000 10.000000 
pelvis 0.000000 0.000000 0.000000 0.000000 0.000000 0.000000 10.000000 
null_rope03_connect 0.000000 0.000000 0.000000 0.000000 0.000000 0.000000 10.000000 
null_rope04_connect 0.000000 0.000000 0.000000 0.000000 0.000000 0.000000 10.000000 
Rope3_Seg01 0.000000 0.000000 0.000000 0.000000 0.000000 0.000000 10.000000 
Rope3_Seg02 0.000000 0.000000 0.000000 0.000000 0.000000 0.000000 10.000000 
Rope3_Seg03 0.000000 0.000000 0.000000 0.000000 0.000000 0.000000 10.000000 
Rope3_Seg04 0.000000 0.000000 0.000000 0.000000 0.000000 0.000000 10.000000 
Rope3_Seg05 0.000000 0.000000 0.000000 0.000000 0.000000 0.000000 10.000000 
Rope3_Seg06 0.000000 0.000000 0.000000 0.000000 0.000000 0.000000 10.000000 
Rope3_Seg07 0.000000 0.000000 0.000000 0.000000 0.000000 0.000000 10.000000 
Rope3_Seg08 0.000000 0.000000 0.000000 0.000000 0.000000 0.000000 10.000000 
Rope3_Seg09 0.000000 0.000000 0.000000 0.000000 0.000000 0.000000 10.000000 
R_rear_hand01 0.000000 0.000000 0.000000 0.000000 0.000000 0.000000 10.000000 
R_rear_hand02 0.000000 0.000000 0.000000 0.000000 0.000000 0.000000 10.000000 
R_rear_hand03 0.000000 0.000000 0.000000 0.000000 0.000000 0.000000 10.000000 
Rope4_Seg01 0.000000 0.000000 0.000000 0.000000 0.000000 0.000000 10.000000 
Rope4_Seg02 0.000000 0.000000 0.000000 0.000000 0.000000 0.000000 10.000000 
Rope4_Seg03 0.000000 0.000000 0.000000 0.000000 0.000000 0.000000 10.000000 
Rope4_Seg04 0.000000 0.000000 0.000000 0.000000 0.000000 0.000000 10.000000 
Rope4_Seg05 0.000000 0.000000 0.000000 0.000000 0.000000 0.000000 10.000000 
Rope4_Seg06 0.000000 0.000000 0.000000 0.000000 0.000000 0.000000 10.000000 
Rope4_Seg07 0.000000 0.000000 0.000000 0.000000 0.000000 0.000000 10.000000 
Rope4_Seg08 0.000000 0.000000 0.000000 0.000000 0.000000 0.000000 10.000000 
Rope4_Seg09 0.000000 0.000000 0.000000 0.000000 0.000000 0.000000 10.000000 
L_rear_hand01 0.000000 0.000000 0.000000 0.000000 0.000000 0.000000 10.000000 
L_rear_hand02 0.000000 0.000000 0.000000 0.000000 0.000000 0.000000 10.000000 
L_rear_hand03 0.000000 0.000000 0.000000 0.000000 0.000000 0.000000 10.000000 
#Beginning of Data. Separated by tabs
#Fr	Tx	Ty	Tz	Rx	Ry	Rz	SF
[MASTER]
43 -1251.666382 3679.436279 861.586853 0.001660 0.001660 0.001660 3980.860596
44 -1041.081177 3785.784668 744.614929 0.001660 0.001660 0.001660 3996.306641
[root]
43 75.160065 -197.733765 670.279968 -166.412888 -4.338930 -81.859467 702.867676
44 41.689377 -152.601608 779.530823 -156.877304 -7.221825 -83.442482 795.420349
[chest]
43 -84.512650 -34.090519 0.000000 -65.204269 -25.776390 -166.723618 91.129311
44 -84.512650 -34.090519 0.000000 -59.081882 -23.603853 -170.366180 91.129311
[L_mid_tent01]
43 27.298933 22.178991 -249.918793 -3.861026 11.588605 60.436821 252.381729
44 27.298929 22.178989 -249.918793 -4.855075 21.280954 56.357273 252.381729
[R_mid_tent01]
43 23.228794 24.509907 226.238495 160.763428 39.105274 58.704514 228.744751
44 23.228794 24.509907 226.238495 162.177353 33.485947 59.021809 228.744751
[spine01]
43 -0.361383 -0.195265 0.000000 0.001950 0.001307 22.340317 0.410763
44 -0.361383 -0.195265 0.000000 0.001949 0.001307 22.301912 0.410763
[Bip01_Neck]
43 165.484543 71.581718 0.000119 176.643677 -1.657967 43.431911 180.302734
44 165.484543 71.581718 0.000119 176.643677 -1.657967 43.431911 180.302734
[L_humerus]
43 -13.983130 -135.272980 -120.471481 160.279877 62.373150 -107.648193 181.680161
44 -13.983130 -135.272980 -120.471481 160.095261 62.753860 -107.846222 181.680161
[R_humerus]
43 -13.983309 -135.273102 125.287651 -152.678802 -54.012268 -118.198814 184.909012
44 -13.983309 -135.273102 125.287651 -154.759811 -55.304234 -115.254242 184.909012
[weapon_bone]
43 235.964890 -300.705902 0.000000 0.000000 -89.951546 -128.212341 382.234833
44 235.964890 -300.705902 0.000000 0.000000 -89.951546 -128.212341 382.234833
[Bip01_Head]
43 213.365173 185.934601 8.951111 12.416279 6.149303 -43.831696 283.154541
44 213.377808 185.899612 9.402229 13.934706 6.151511 -43.831211 283.155701
[eye_left_bone]
43 -24.626970 125.451866 -64.772606 0.000000 -90.000000 -99.840431 143.318359
44 -24.626970 125.451866 -64.772606 0.000000 -90.000000 -99.840431 143.318359
[eye_right_bone]
43 -24.626970 125.451866 64.327362 0.000000 -89.965736 80.156380 143.117676
44 -24.626970 125.451866 64.327362 0.000000 -89.965736 80.156380 143.117676
[L_forearm]
43 322.776093 0.000000 -0.000119 0.000310 -0.002327 -105.190292 322.776093
44 322.776093 0.000000 -0.000119 0.000318 -0.002326 -105.549919 322.776093
[L_front_hand]
43 241.149185 -0.042021 -3.300071 -105.490540 -1.835781 -27.423635 241.171753
44 241.149185 -0.042021 -3.300071 -105.490540 -1.835781 -27.423635 241.171753
[L_weapon_bone]
43 156.183838 0.000000 0.000000 0.000014 0.000007 0.000001 156.183838
44 156.183838 0.000000 0.000000 0.000014 0.000007 0.000001 156.183838
[L_front_hand01_01]
43 86.095154 20.947098 -0.655860 -0.366594 -0.477154 75.385574 88.609184
44 86.095154 20.947098 -0.655860 -0.366594 -0.477154 75.385574 88.609184
[L_front_hand02_01]
43 86.935165 -11.437475 24.513514 154.399796 -59.883835 -61.369587 91.046425
44 86.935165 -11.437475 24.513514 154.399796 -59.883835 -61.369587 91.046425
[L_front_hand03_01]
43 86.637497 -14.123976 -20.424902 -153.913849 58.118122 -62.702866 90.126129
44 86.637497 -14.123976 -20.424902 -153.913849 58.118122 -62.702866 90.126129
[L_front_hand01_02]
43 71.020905 -0.000179 0.000030 0.000334 -0.002323 -106.379684 71.020905
44 71.020905 -0.000179 0.000030 0.000334 -0.002323 -106.379684 71.020905
[L_front_hand02_02]
43 71.020927 -0.000119 0.000060 0.000334 -0.002323 -106.379684 71.020927
44 71.020927 -0.000119 0.000060 0.000334 -0.002323 -106.379684 71.020927
[L_front_hand03_02]
43 71.020905 -0.000060 0.000060 0.000334 -0.002323 -106.379684 71.020905
44 71.020905 -0.000060 0.000060 0.000334 -0.002323 -106.379684 71.020905
[R_forearm]
43 322.776428 -0.000060 0.000030 0.208256 0.046494 -103.801003 322.776428
44 322.776428 -0.000060 0.000030 0.208538 0.047710 -104.164177 322.776428
[R_front_hand]
43 238.847015 -0.006795 2.210259 15.488865 -10.646106 -26.316050 238.857239
44 238.847015 -0.006795 2.210259 15.488859 -10.646103 -26.316044 238.857239
[R_weapon_bone]
43 155.664093 0.002503 -0.000030 0.003487 0.001180 -90.988930 155.664078
44 155.664093 0.002503 -0.000030 0.003487 0.001180 -90.988930 155.664078
[R_front_hand01_01]
43 87.624611 14.231146 22.918642 -154.633499 -59.950619 61.746044 91.683487
44 87.624611 14.231146 22.918642 -154.633514 -59.950634 61.746063 91.683487
[R_front_hand02_01]
43 89.356956 14.367283 -19.491137 154.602661 58.302849 63.744389 92.579636
44 89.356956 14.367283 -19.491137 154.602661 58.302849 63.744389 92.579636
[R_front_hand03_01]
43 87.286232 -22.307278 -0.143439 0.162155 -0.423168 -75.767921 90.091743
44 87.286232 -22.307278 -0.143439 0.162155 -0.423168 -75.767921 90.091743
[R_front_hand01_02]
43 71.020905 0.000060 0.000119 0.002323 -0.000334 106.381714 71.020905
44 71.020905 0.000060 0.000119 0.002323 -0.000334 106.381714 71.020905
[R_front_hand02_02]
43 71.020844 -0.000030 -0.000119 0.002323 -0.000334 106.381714 71.020836
44 71.020844 -0.000030 -0.000119 0.002323 -0.000334 106.381714 71.020836
[R_front_hand03_02]
43 71.020905 0.000000 0.000030 0.002323 -0.000334 106.381714 71.020905
44 71.020905 0.000000 0.000030 0.002323 -0.000334 106.381714 71.020905
[null_rope01_connect]
43 328.732483 0.000000 -0.000238 -173.642242 -2.521731 -143.041840 328.732483
44 328.732483 0.000000 -0.000238 -165.680405 -4.200386 -142.596344 328.732483
[Rope1_Seg01]
43 -0.000029 -0.000009 0.000153 -11.186326 -6.553901 -157.870422 0.000156
44 -0.000030 -0.000008 0.000153 -15.931579 -9.478846 -162.711899 0.000156
[Rope1_Seg02]
43 139.999863 -0.000179 0.000000 21.195465 8.507148 14.137722 139.999863
44 139.999863 -0.000179 0.000000 30.346739 12.123816 21.863979 139.999863
[Rope1_Seg03]
43 139.999924 0.000060 -0.000060 7.165744 3.287402 4.476870 139.999924
44 139.999924 0.000060 -0.000060 7.823433 2.883646 6.206746 139.999924
[Rope1_Seg04]
43 139.999924 -0.000060 -0.000119 -43.394878 -27.785398 0.767874 139.999924
44 139.999924 -0.000060 -0.000119 -27.693724 -20.995398 5.915082 139.999924
[Rope1_Seg05]
43 139.999832 0.000119 -0.000060 -20.087702 -7.975663 -7.276262 139.999832
44 139.999832 0.000119 -0.000060 -17.056784 -7.349141 -1.395493 139.999832
[Rope1_Seg06]
43 139.999954 0.000119 -0.000060 -6.836694 -2.017359 -3.674254 139.999954
44 139.999954 0.000119 -0.000060 -9.013039 -3.076348 -1.468041 139.999954
[Rope1_Seg07]
43 139.999985 0.000060 0.000000 -3.807864 -0.963807 -2.391290 139.999985
44 139.999985 0.000060 0.000000 -5.957411 -1.780884 -1.228138 139.999985
[Rope1_Seg09]
43 121.602913 0.000119 -0.000089 -89.793175 -1.359789 0.847147 121.602913
44 121.602913 0.000119 -0.000089 -89.793175 -1.359789 0.847147 121.602913
[L_mid_hand01]
43 103.859421 1.038730 8.195221 130.544373 -67.584534 -38.866943 104.187431
44 103.859421 1.038730 8.195221 130.544373 -67.584534 -38.866943 104.187431
[L_mid_hand02]
43 105.572853 -4.139662 -10.864139 -168.923172 43.409309 -73.498886 106.211075
44 105.572853 -4.139662 -10.864139 -168.923172 43.409309 -73.498886 106.211075
[L_mid_hand03]
43 104.641464 17.579376 -3.913581 -6.012627 17.808174 74.893669 106.179977
44 104.641464 17.579376 -3.913581 -6.012627 17.808174 74.893669 106.179977
[null_rope02_connect]
43 328.732849 0.000179 -0.000119 10.581226 -28.076141 146.143600 328.732849
44 328.732849 0.000179 -0.000119 9.292622 -13.345324 147.779327 328.732849
[Rope2_Seg01]
43 0.000067 0.000260 0.000117 -38.231064 -24.909136 -156.152557 0.000293
44 0.000068 0.000264 0.000119 -47.716278 14.666233 -133.485565 0.000297
[Rope2_Seg02]
43 139.999741 -0.000060 -0.000119 -1.318721 -7.619515 9.941198 139.999756
44 139.999741 -0.000060 -0.000119 0.860977 -16.423374 -6.917551 139.999756
[Rope2_Seg03]
43 140.000107 0.000030 0.000000 -0.338051 -9.875531 10.998487 140.000107
44 140.000107 0.000030 0.000000 -1.617018 -14.341442 -3.504486 140.000107
[Rope2_Seg04]
43 139.999802 0.000000 -0.000060 1.083775 -8.388962 9.514537 139.999802
44 139.999802 0.000000 -0.000060 -1.469131 -4.404320 -2.822900 139.999802
[Rope2_Seg05]
43 139.999985 -0.000060 0.000119 -0.019228 7.551075 -2.795317 139.999985
44 139.999985 -0.000060 0.000119 -0.207084 6.872277 -3.063168 139.999985
[Rope2_Seg06]
43 139.999893 -0.000030 -0.000119 -0.583256 8.960711 -4.927051 139.999893
44 139.999893 -0.000030 -0.000119 -0.121110 7.657628 -2.722999 139.999893
[Rope2_Seg07]
43 139.999893 0.000060 -0.000060 -0.077210 3.379386 -1.331617 139.999893
44 139.999893 0.000060 -0.000060 -0.122328 3.437919 -1.822920 139.999893
[Rope2_Seg09]
43 121.338966 0.000089 -0.000060 33.793236 -1.359788 -0.847141 121.338966
44 121.338966 0.000089 -0.000060 33.793236 -1.359788 -0.847141 121.338966
[R_mid_hand01]
43 104.680779 11.144459 -10.335981 -16.212059 45.237240 70.462852 105.778534
44 104.680779 11.144459 -10.335981 -16.212063 45.237247 70.462852 105.778534
[R_mid_hand02]
43 104.070427 2.443552 8.231699 49.067387 -67.749794 39.286469 104.424065
44 104.070427 2.443552 8.231699 49.067368 -67.749771 39.286453 104.424065
[R_mid_hand03]
43 106.028137 -11.221827 -5.996406 -177.101105 15.551026 -76.585571 106.788818
44 106.028137 -11.221827 -5.996406 -177.101105 15.551026 -76.585571 106.788818
[spine02]
43 129.756927 0.001550 0.000119 -0.072769 -4.060011 -6.804065 129.756927
44 129.756927 0.001550 0.000119 -0.035822 -4.060284 -7.326271 129.756927
[spine03]
43 78.613930 0.081671 -4.898960 1.635393 3.951752 12.664647 78.766464
44 78.613922 0.081668 -4.898959 1.657608 3.942541 12.987282 78.766457
[pelvis]
43 169.435242 0.051022 0.000000 -0.036989 -0.189474 6.390449 169.435257
44 169.435242 0.051022 0.000000 -0.039720 -0.189141 7.048835 169.435257
[null_rope03_connect]
43 -1.257226 -2.466202 137.391083 -177.617706 -14.748010 -116.199089 137.418976
44 -1.257226 -2.466202 137.391083 -175.539261 -24.509504 -117.899437 137.418976
[null_rope04_connect]
43 -1.259640 -2.480268 -137.844437 -177.617706 -14.748010 -116.199089 137.872513
44 -1.259640 -2.480268 -137.844437 -175.539261 -24.509504 -117.899437 137.872513
[Rope3_Seg01]
43 0.000000 0.000000 0.000000 17.829493 -6.874795 -85.363846 0.000000
44 0.000000 0.000000 0.000000 15.152406 -8.003378 -65.100197 0.000000
[Rope3_Seg02]
43 139.999924 -0.000119 0.000060 2.722408 -12.746416 -15.584841 139.999924
44 139.999924 -0.000119 0.000060 2.460795 -13.857457 -19.063183 139.999924
[Rope3_Seg03]
43 139.999924 -0.000119 0.000119 3.009171 -7.439602 -4.146189 139.999924
44 139.999924 -0.000119 0.000119 1.454372 -7.417409 -5.869334 139.999924
[Rope3_Seg04]
43 139.999924 0.000119 0.000000 -6.710964 -4.520426 -18.257565 139.999924
44 139.999924 0.000119 0.000000 -0.500948 -8.986253 -18.967176 139.999924
[Rope3_Seg05]
43 139.999924 -0.000238 0.000060 -12.982331 -0.330656 -12.684726 139.999924
44 139.999924 -0.000238 0.000060 -6.062606 -6.175833 -17.589235 139.999924
[Rope3_Seg06]
43 139.999893 -0.000119 -0.000060 -7.122864 0.636605 -4.776605 139.999893
44 139.999893 -0.000119 -0.000060 -4.918278 -1.775356 -6.842613 139.999893
[Rope3_Seg07]
43 139.999771 0.000060 -0.000119 -5.691475 0.792242 -3.029015 139.999771
44 139.999771 0.000060 -0.000119 -4.605325 -0.726873 -4.197185 139.999771
[Rope3_Seg08]
43 139.999985 -0.000060 0.000000 -3.793160 0.655476 -1.776825 139.999985
44 139.999985 -0.000060 0.000000 -3.600294 -0.225254 -2.495219 139.999985
[Rope3_Seg09]
43 90.185997 -0.000179 -0.000060 89.793228 -1.359877 -0.847183 90.185997
44 90.185997 -0.000179 -0.000060 89.793228 -1.359877 -0.847183 90.185997
[R_rear_hand01]
43 103.366196 -6.073594 -10.757982 172.856537 -15.220674 -75.434448 104.101845
44 103.366196 -6.073594 -10.757982 172.856537 -15.220671 -75.434441 104.101845
[R_rear_hand02]
43 100.509819 12.039542 -7.992327 -12.874829 36.868488 72.167213 101.543350
44 100.509819 12.039542 -7.992327 -12.874829 36.868488 72.167213 101.543350
[R_rear_hand03]
43 101.539970 5.215704 5.435467 71.484634 -71.816666 21.513840 101.819031
44 101.539970 5.215704 5.435467 71.484581 -71.816628 21.513813 101.819031
[Rope4_Seg01]
43 -0.000019 -0.000233 -0.000153 -91.890396 -14.587049 -126.759872 0.000279
44 -0.000019 -0.000239 -0.000153 -91.874847 -25.961386 -120.971870 0.000284
[Rope4_Seg02]
43 139.999985 0.000060 0.000119 0.153484 -2.350986 -1.371770 139.999985
44 139.999985 0.000060 0.000119 -0.235039 -8.299854 -0.154835 139.999985
[Rope4_Seg03]
43 139.999924 0.000000 -0.000238 0.288400 -0.490097 -1.127222 139.999924
44 139.999924 0.000000 -0.000238 0.031794 -1.408139 0.767912 139.999924
[Rope4_Seg04]
43 139.999985 0.000000 0.000119 4.537302 19.622631 -3.544043 139.999985
44 139.999985 0.000000 0.000119 2.822763 25.506701 5.953266 139.999985
[Rope4_Seg05]
43 139.999802 -0.000060 -0.000119 2.431157 5.541340 -1.475451 139.999802
44 139.999802 -0.000060 -0.000119 1.109545 6.774272 1.306001 139.999802
[Rope4_Seg06]
43 139.999924 0.000000 0.000060 1.302413 2.315214 -0.748705 139.999924
44 139.999924 0.000000 0.000060 0.649108 3.015909 0.538237 139.999924
[Rope4_Seg07]
43 139.999802 0.000000 0.000000 0.988836 1.519723 -0.529320 139.999802
44 139.999802 0.000000 0.000000 0.531711 1.973575 0.332340 139.999802
[Rope4_Seg08]
43 139.999924 0.000000 0.000119 -0.901256 0.923855 -0.341933 139.999924
44 139.999924 0.000000 0.000119 -1.193265 1.205546 0.191902 139.999924
[Rope4_Seg09]
43 90.185791 0.000060 0.000060 -135.617828 2.228885 0.850567 90.185791
44 90.185791 0.000060 0.000060 -135.617828 2.228885 0.850567 90.185791
[L_rear_hand01]
43 101.696655 -8.392275 -7.654577 -12.874829 -36.868488 107.832764 102.329041
44 101.696655 -8.392275 -7.654577 -12.874829 -36.868488 107.832764 102.329041
[L_rear_hand02]
43 102.726799 -1.568258 5.773216 71.484581 71.816628 158.486160 102.900848
44 102.726799 -1.568258 5.773216 71.484581 71.816628 158.486160 102.900848
[L_rear_hand03]
43 104.552910 9.721220 -10.420293 -177.714203 -24.565960 -106.089035 105.519653
44 104.552910 9.721220 -10.420293 -177.714203 -24.565960 -106.089035 105.519653
